Coordinates
version=1
nRows=4
nColumns=107
inDegrees=yes

Units are S.I. units (second, meters, Newtons, ...)
If the header above contains a line with 'inDegrees', this indicates whether rotational values are in degrees (yes) or radians (no).

endheader
time	sternoclavicular_r2	sternoclavicular_r3	unrotscap_r3	unrotscap_r2	acromioclavicular_r2	acromioclavicular_r3	acromioclavicular_r1	unrothum_r1	unrothum_r3	unrothum_r2	elv_angle	shoulder_elv	shoulder1_r2	shoulder_rot	elbow_flexion	pro_sup	deviation	flexion	proximal_distal_r1	proximal_distal_r3	cmc_flexion	cmc_abduction	mp_flexion	ip_flexion	mcp2_flexion	mcp2_abduction	pm2_flexion	md2_flexion	mcp3_flexion	mcp3_abduction	pm3_flexion	md3_flexion	mcp4_flexion	mcp4_abduction	pm4_flexion	md4_flexion	mcp5_flexion	mcp5_abduction	pm5_flexion	md5_flexion	bicpt_tx	bicpt_ty	bicpt_tz	bicpt2_tx	bicpt2_ty	bicpt2_tz	ptpt_tx	ptpt_ty	ptpt_tz	FCUpt_tx	FCUpt_ty	FCUpt_tz	EDCpt_tx	EDCpt_ty	EDCpt_tz	APLpt_tx	APLpt_ty	APLpt_tz	FPLpt_tx	FPLpt_ty	FPLpt_tz	FPLpt2_tx	FPLpt2_ty	FPLpt2_tz	PEC1pt2_tx	PEC1pt2_ty	PEC1pt2_tz	PEC1pt3_tx	PEC1pt3_ty	PEC1pt3_tz	PEC2pt2_tx	PEC2pt2_ty	PEC2pt2_tz	PEC2pt3_tx	PEC2pt3_ty	PEC2pt3_tz	PEC3pt2_tx	PEC3pt2_ty	PEC3pt2_tz	PEC3pt3_tx	PEC3pt3_ty	PEC3pt3_tz	DELT2pt2a_tx	DELT2pt2a_ty	DELT2pt2a_tz	DELT2pt2_tx	DELT2pt2_ty	DELT2pt2_tz	LAT1pt2_tx	LAT1pt2_ty	LAT1pt2_tz	LAT1pt3_tx	LAT1pt3_ty	LAT1pt3_tz	LAT2pt2_tx	LAT2pt2_ty	LAT2pt2_tz	LAT2pt3_tx	LAT2pt3_ty	LAT2pt3_tz	LAT3pt2_tx	LAT3pt2_ty	LAT3pt2_tz	LAT3pt3_tx	LAT3pt3_ty	LAT3pt3_tz
      1.06666667	     -0.33008733	      0.13980941	     -0.13980941	      0.33008733	     -0.06683597	      0.54014479	      0.24279137	     -0.24279137	     -0.54014479	      0.06683597	     98.54764821	     78.15110885	     -1.71998093	    -16.21787636	     27.64034846	     38.85937401	      0.18627040	     -0.03241058	      0.22439569	     -0.01620529	     29.10849934	    -20.69809279	      7.43892076	     -0.15314104	     -0.84806203	      0.84653332	     14.56549564	    -39.03139407	     -8.35348646	     -1.96665914	      8.38248721	     12.00934051	     -8.20983838	      0.81516225	    -11.07683190	     22.71047910	    -22.97557833	     -0.26439120	      5.02366583	      4.90033756	      0.00081426	     -0.03076801	     -0.00481028	      0.01657084	     -0.01770864	     -0.00759091	      0.00467873	     -0.06675661	     -0.00318033	      0.00766559	     -0.18351861	     -0.00037785	     -0.00466311	      0.00133404	      0.00015427	      0.00003228	      0.00001291	      0.00006456	      0.00004132	      0.00012396	      0.00006973	     -0.00000726	     -0.00025700	     -0.00030839	      0.00256162	      0.00898739	      0.00625209	     -0.00837954	      0.02023247	     -0.01919046	      0.00256162	      0.00898739	      0.00625209	      0.00056443	      0.01875628	     -0.00985573	      0.00402233	      0.00499777	      0.01614659	      0.00000000	      0.00817113	      0.00000000	     -0.00733753	     -0.03390893	     -0.00673958	      0.01149813	     -0.00031872	     -0.00210148	     -0.00091176	      0.01528290	     -0.00625209	      0.00251820	      0.02205600	     -0.01823527	     -0.00612184	      0.01324228	     -0.00560083	     -0.01276469	      0.02796075	     -0.03130389	     -0.02396636	      0.01480531	     -0.00751120	     -0.01589074	      0.03230249	     -0.03911900
      1.10000000	     -0.33074240	      0.14008687	     -0.14008687	      0.33074240	     -0.06696861	      0.54121674	      0.24327320	     -0.24327320	     -0.54121674	      0.06696861	     98.49322603	     78.30620376	     -1.71903109	    -15.55291456	     27.54821103	     39.27762809	      0.19072843	     -0.06006957	      0.22907027	     -0.03003479	     30.39916082	    -21.43977213	      7.73445685	      0.14776526	      0.16242895	      1.02034779	     14.66891926	    -38.03632398	     -6.33883120	     -2.15812758	      8.72985002	     11.71119279	     -6.49128957	      0.20886813	     -9.65393845	     22.54299253	    -20.52468520	     -0.79177910	      5.23482502	      4.94815371	      0.00081121	     -0.03075745	     -0.00480858	      0.01657246	     -0.01768361	     -0.00754678	      0.00464783	     -0.06677659	     -0.00321402	      0.00770759	     -0.18351002	     -0.00038109	     -0.00471330	      0.00135094	      0.00015146	      0.00005844	      0.00002338	      0.00011688	      0.00007480	      0.00022440	      0.00012623	     -0.00000907	     -0.00024659	     -0.00029590	      0.00256671	      0.00900522	      0.00626450	     -0.00839617	      0.02027262	     -0.01922854	      0.00256671	      0.00900522	      0.00626450	      0.00056555	      0.01879350	     -0.00987529	      0.00402808	      0.00500769	      0.01616019	      0.00000000	      0.00820384	      0.00000000	     -0.00735209	     -0.03397622	     -0.00676672	      0.01107779	     -0.00029945	     -0.00191596	     -0.00091357	      0.01531323	     -0.00626450	      0.00252320	      0.02209977	     -0.01827146	     -0.00613399	      0.01326856	     -0.00561195	     -0.01279002	      0.02801624	     -0.03136601	     -0.02401392	      0.01483469	     -0.00752610	     -0.01592227	      0.03236659	     -0.03919664
      1.13333333	     -0.33086974	      0.14014081	     -0.14014081	      0.33086974	     -0.06699439	      0.54142511	      0.24336686	     -0.24336686	     -0.54142511	      0.06699439	     98.43657758	     78.33635182	     -1.71804238	    -15.33335015	     27.60329424	     38.77298720	      0.18436985	     -0.11306134	      0.22239297	     -0.05653067	     30.05537449	    -21.45036413	      7.26520495	     -0.12058840	      2.08267392	      1.14747312	     15.06471291	    -37.06376720	     -4.04281556	     -2.25953776	      8.95799027	     11.88481008	     -4.49121696	     -0.22451545	     -8.32211623	     22.67034719	    -17.93363000	     -1.16549841	      5.19959290	      4.92156700	      0.00081303	     -0.03076376	     -0.00480960	      0.01657039	     -0.01769857	     -0.00759996	      0.00468511	     -0.06675248	     -0.00317337	      0.00765694	     -0.18352037	     -0.00037714	     -0.00465275	      0.00133056	      0.00015482	      0.00010498	      0.00004199	      0.00020995	      0.00013437	      0.00040311	      0.00022675	     -0.00000862	     -0.00024954	     -0.00029944	      0.00256769	      0.00900869	      0.00626691	     -0.00839940	      0.02028043	     -0.01923594	      0.00256769	      0.00900869	      0.00626691	      0.00056576	      0.01880074	     -0.00987909	      0.00402920	      0.00500962	      0.01616282	      0.00000000	      0.00821021	      0.00000000	     -0.00735492	     -0.03398930	     -0.00677200	      0.01093771	     -0.00029313	     -0.00185637	     -0.00091392	      0.01531912	     -0.00626691	      0.00252417	      0.02210828	     -0.01827850	     -0.00613635	      0.01327367	     -0.00561411	     -0.01279495	      0.02802703	     -0.03137809	     -0.02402317	      0.01484040	     -0.00752900	     -0.01592840	      0.03237905	     -0.03921173
      1.16666667	     -0.33043507	      0.13995670	     -0.13995670	      0.33043507	     -0.06690638	      0.54071382	      0.24304714	     -0.24304714	     -0.54071382	      0.06690638	     98.38050993	     78.23343904	     -1.71706382	    -15.80761205	     28.00015997	     38.33649832	      0.18371259	     -0.11336585	      0.22169901	     -0.05668293	     28.68806184	    -20.97611334	      6.34322673	     -1.30980311	      2.99703449	      1.33001674	     16.17544226	    -36.93338655	     -3.61925356	     -2.06365485	      9.89760276	     12.90274072	     -3.87399221	     -0.09236328	     -7.97545496	     23.67670753	    -17.31821144	     -0.76578238	      5.48723473	      4.92565266	      0.00082616	     -0.03080925	     -0.00481693	      0.01656817	     -0.01780638	     -0.00764569	      0.00471737	     -0.06673163	     -0.00313821	      0.00761318	     -0.18352928	     -0.00037358	     -0.00460037	      0.00131300	      0.00015762	      0.00010523	      0.00004209	      0.00021045	      0.00013469	      0.00040407	      0.00022729	     -0.00000661	     -0.00025998	     -0.00031197	      0.00256432	      0.00899685	      0.00625868	     -0.00838837	      0.02025379	     -0.01921067	      0.00256432	      0.00899685	      0.00625868	      0.00056502	      0.01877604	     -0.00986611	      0.00402538	      0.00500304	      0.01615381	      0.00000000	      0.00818848	      0.00000000	     -0.00734526	     -0.03394465	     -0.00675398	      0.01123951	     -0.00030681	     -0.00198609	     -0.00091272	      0.01529900	     -0.00625868	      0.00252086	      0.02207923	     -0.01825448	     -0.00612829	      0.01325623	     -0.00560673	     -0.01277814	      0.02799021	     -0.03133687	     -0.02399161	      0.01482090	     -0.00751911	     -0.01590748	      0.03233652	     -0.03916022
